<?xml version="1.0" encoding="UTF-8"?>
<svg width="300px" height="300px" viewBox="0 0 300 300" version="1.1" xmlns="http://www.w3.org/2000/svg" xmlns:xlink="http://www.w3.org/1999/xlink">
    <!-- Generator: Sketch 53.2 (72643) - https://sketchapp.com -->
    <title>Artboard</title>
    <desc>Created with Sketch.</desc>
    <g id="Artboard" stroke="none" stroke-width="1" fill="none" fill-rule="evenodd">
        <g id="GM-1" transform="translate(53.000000, 49.000000)">
            <g id="colour" transform="translate(38.000000, 0.000000)" fill-rule="nonzero">
                <path d="M117.119789,59.1219699 C117.069912,68.6383862 114.653612,77.9897725 110.092602,86.3180761 C104.811123,94.9352332 98.112767,102.579967 90.2855789,108.923535 C83.5684144,115.00962 75.9211811,121.999924 75.7833932,131.841993 L75.7833932,132.154992 L41.3363963,132.154992 L41.3363963,131.841993 C41.1986083,121.999924 33.5513749,115.00962 26.8342106,108.923535 C19.0070224,102.579967 12.3086666,94.9352332 7.02718736,86.3180761 C2.46617723,77.9897725 0.0498774729,68.6383862 1.77635684e-15,59.1219699 C0.00659193826,28.4964481 23.1767952,2.94569467 53.3928452,0.243443406 C55.1099977,0.0739686586 56.8345721,-0.00728395482 58.5598947,3.3785366e-15 C90.9016312,3.3785366e-15 117.119789,26.4698076 117.119789,59.1219699 Z" id="Shape" fill="#60A844"></path>
                <rect id="Rectangle-path" fill="#60A844" x="41.3363963" y="149.543806" width="34.4469969" height="17.0045315"></rect>
                <rect id="Rectangle-path" fill="#CBCED8" x="41.3363963" y="149.543806" width="24.1128978" height="17.0045315"></rect>
                <path d="M75.7833932,170.410383 L63.4169212,198.545486 C62.5550819,200.473046 60.6546373,201.712053 58.5598947,201.712053 C56.4651522,201.712053 54.5647075,200.473046 53.7028681,198.545486 L53.3928452,197.849934 L41.3363963,170.410383 C41.4309805,168.071641 42.7402878,165.956641 44.7810959,164.845963 C46.3472324,163.919243 48.13291,163.438492 49.9481455,163.454858 C51.1212944,163.453101 52.2861747,163.653031 53.3928452,164.046078 C56.2865686,164.832818 58.3637442,167.391296 58.5598947,170.410383 C58.654479,168.071641 59.9637862,165.956641 62.0045944,164.845963 C63.5707308,163.919243 65.3564085,163.438492 67.171644,163.454858 C71.431757,163.044772 75.2445266,166.124264 75.7833932,170.410383 Z" id="Shape" fill="#CBCED8"></path>
                <rect id="Rectangle-path" fill="#60A844" x="34.4469969" y="132.154992" width="48.2257956" height="17.3888147" rx="1"></rect>
                <path d="M106.78569,59.1219699 C106.735813,68.6383862 104.319513,77.9897725 99.7585029,86.3180761 C94.4770237,94.9352332 87.778668,102.579967 79.9514797,108.923535 C73.2343154,115.00962 65.587082,121.999924 65.449294,131.841993 L65.449294,132.154992 L41.3363963,132.154992 L41.3363963,131.841993 C41.1986083,121.999924 33.5513749,115.00962 26.8342106,108.923535 C19.0070224,102.579967 12.3086666,94.9352332 7.02718736,86.3180761 C2.46617723,77.9897725 0.0498774729,68.6383862 1.77635684e-15,59.1219699 C0.00659193826,28.4964481 23.1767952,2.94569467 53.3928452,0.243443406 C83.6088951,2.94569467 106.779098,28.4964481 106.78569,59.1219699 Z" id="Shape" fill="#CBCED8"></path>
                <path d="M65.449294,170.410383 L53.3928452,197.849934 L41.3363963,170.410383 C41.4309805,168.071641 42.7402878,165.956641 44.7810959,164.845963 C46.8823627,166.132735 50.3615094,165.089407 53.3928452,164.046078 C56.2865686,164.832818 58.3637442,167.391296 58.5598947,170.410383 C58.654479,168.071641 59.9637862,165.956641 62.0045944,164.845963 C64.0454025,165.956641 65.3547098,168.071641 65.449294,170.410383 Z" id="Shape" fill="#CBCED8"></path>
                <rect id="Rectangle-path" fill="#CBCED8" x="34.4469969" y="132.154992" width="37.8916966" height="17.3888147" rx="1"></rect>
                <path d="M67.4472198,189.39897 L63.4169212,198.545486 C62.5550819,200.473046 60.6546373,201.712053 58.5598947,201.712053 C56.4651522,201.712053 54.5647075,200.473046 53.7028681,198.545486 L49.6725695,189.39897 C51.5472356,186.249394 54.9203228,184.322782 58.5598947,184.322782 C62.1994665,184.322782 65.5725536,186.249394 67.4472198,189.39897 Z" id="Shape" fill="#60A844"></path>
            </g>
            <g id="whites" transform="translate(38.000000, 0.000000)" fill="#FFFFFF" fill-rule="nonzero">
                <path d="M41.2159193,170.475315 L49.5312312,189.464177 L51.9698397,195.013322 L53.2406639,197.91836 L53.5497832,198.614178 C54.4091109,200.542474 56.3040165,201.781953 58.3926538,201.781953 C60.4812911,201.781953 62.3761969,200.542474 63.2355244,198.614178 L63.5412091,197.91836 L62.2738196,195.016802 L59.8352109,189.467656 L51.5198993,170.475315 C51.6100938,168.134394 52.9167555,166.016693 54.9545592,164.908774 C54.4124081,164.57616 53.8366904,164.303239 53.2372293,164.094667 C52.1337843,163.701471 50.9722991,163.501464 49.8025693,163.503222 C47.9926243,163.486849 46.2121512,163.967784 44.6505794,164.894857 C42.6116123,166.008459 41.3054555,168.130636 41.2159193,170.475315 Z" id="Shape"></path>
                <path d="M26.756001,108.965038 C33.4535879,115.053442 41.0785331,122.046409 41.2159193,131.892228 L41.2159193,132.205346 L37.7812595,132.205346 C35.8843493,132.205346 34.3465996,133.762987 34.3465996,135.684434 L34.3465996,146.121698 C34.3465996,148.043145 35.8843493,149.600786 37.7812595,149.600786 L41.2159193,149.600786 L41.2159193,163.517138 L51.5198993,163.517138 L51.5198993,149.600786 L48.0852392,149.600786 C46.1883291,149.600786 44.6505794,148.043145 44.6505794,146.121698 L44.6505794,135.684434 C44.6505794,133.762987 46.1883291,132.205346 48.0852392,132.205346 L51.5198993,132.205346 L51.5198993,131.892228 C51.3825128,122.046409 43.7575678,115.053442 37.0599808,108.965038 C29.2556056,102.619052 22.5767722,94.971406 17.3106861,86.3509655 C12.7629693,78.0194885 10.3537119,68.664539 10.3039799,59.1444969 C10.301354,28.5460067 33.3487173,3.00164703 63.4347347,0.257452515 C61.7689246,0.111330818 60.1065492,6.61363325e-18 58.3892192,6.61363325e-18 C56.6689251,-0.00728673018 54.949377,0.0739968424 53.2372293,0.243536163 C23.1092453,2.94681705 0.00657272574,28.5073061 -3.55271368e-15,59.1444969 C0.0497321027,68.664539 2.45898944,78.0194885 7.00670631,86.3509655 C12.2727924,94.971406 18.9516256,102.619052 26.756001,108.965038 Z" id="Shape"></path>
            </g>
            <g id="Outlines">
                <path d="M45.1268429,86.3844994 C50.443918,94.9931882 57.1721163,102.636165 65.0266834,108.989959" id="Shape" stroke="#384B4D" stroke-width="2" stroke-linecap="round" stroke-linejoin="round"></path>
                <path d="M34.614438,59.1988265 C34.6211764,43.0476586 40.8408905,27.5241285 51.9735788,15.8728559 L52.8631698,14.9338599 L57.7576513,19.8514167 L56.9684421,20.6895575 C47.0730826,31.0454476 41.5442167,44.8430612 41.5373257,59.1988265 L34.614438,59.1988265 Z" id="Shape" fill="#FFFFFF" fill-rule="nonzero"></path>
                <path d="M41.3919451,30.8168032 C40.9475098,31.6761922 40.8676169,32.6795644 41.1704126,33.5990136 L41.4646354,34.207622 C41.5849098,34.4105121 41.7328824,34.595472 41.9042387,34.7571087 C42.0412569,34.9303722 42.2048346,35.0806342 42.3888409,35.2022623 C42.5811837,35.3323244 42.7824506,35.4485401 42.9911321,35.5500385 C43.8325931,35.9021079 44.7713502,35.9415609 45.6391367,35.661327 C46.0489463,35.5022045 46.4248588,35.2661511 46.7467986,34.9657744 C47.756111,34.0982323 48.1629476,32.7152789 47.7852318,31.435845 C47.6439045,31.006381 47.4270108,30.6058862 47.1448646,30.2534057 C46.8717477,29.8907626 46.5322136,29.5838594 46.1445073,29.3491873 C45.3455622,28.8839516 44.3947144,28.7587444 43.5034257,29.0014109 C42.5859275,29.2978473 41.8252389,29.9518663 41.3919451,30.8168032 Z" id="Shape" fill="#384B4D" fill-rule="nonzero"></path>
                <path d="M38.0758818,59.1988265 C38.1261815,68.7105893 40.5504839,78.0577243 45.1268429,86.3844994" id="Shape" stroke="#384B4D" stroke-width="2" stroke-linecap="round" stroke-linejoin="round"></path>
                <path d="M65.0266834,108.993436 C71.7799602,115.093432 79.460904,122.07678 79.609746,131.946672 L79.609746,132.231848 L114.227646,132.231848 L114.227646,131.932761 C114.376488,122.07678 122.057432,115.093432 128.810708,108.979525 C136.665275,102.625732 143.393474,94.982755 148.710549,86.3740662 C153.286434,78.0507079 155.711876,68.7073528 155.764971,59.1988265 C155.765488,35.2858229 141.428469,13.7272165 119.439432,4.57603579 C97.4503944,-4.57514493 72.1398548,0.483331277 55.3104107,17.3926382" id="Shape" stroke="#384B4D" stroke-width="2" stroke-linecap="round" stroke-linejoin="round"></path>
                <path d="M56.975365,38.3322489 C59.1062867,34.2367664 61.8470149,30.4921308 65.1028351,27.2277519 C73.5232967,18.7224478 84.9803268,13.9549817 96.9204266,13.9874053" id="Shape" stroke="#384B4D" stroke-width="2" stroke-linecap="round" stroke-linejoin="round"></path>
                <path d="M51.9216499,59.1988265 C51.920358,56.8702343 52.0962502,54.5449503 52.4477966,52.2433006" id="Shape" stroke="#384B4D" stroke-width="2" stroke-linecap="round" stroke-linejoin="round"></path>
                <rect id="Rectangle-path" stroke="#384B4D" stroke-width="2" stroke-linecap="round" stroke-linejoin="round" x="72.6903199" y="132.231848" width="48.4602133" height="17.3888147" rx="1"></rect>
                <path d="M89.997539,132.231848 L89.997539,69.6321154 C89.997539,65.7906845 86.8980566,62.6765895 83.0746513,62.6765895 L79.6132075,62.6765895 C75.7898024,62.6765895 72.6903199,65.7906845 72.6903199,69.6321154 C72.6903199,73.4735463 75.7898024,76.5876412 79.6132075,76.5876412 L96.9204266,76.5876412" id="Shape" stroke="#384B4D" stroke-width="2" stroke-linecap="round" stroke-linejoin="round"></path>
                <path d="M103.843314,132.231848 L103.843314,69.6321154 C103.843314,65.7906845 106.942797,62.6765895 110.766202,62.6765895 L114.227646,62.6765895 C118.051051,62.6765895 121.150533,65.7906845 121.150533,69.6321154 C121.150533,73.4735463 118.051051,76.5876412 114.227646,76.5876412 L96.9204266,76.5876412" id="Shape" stroke="#384B4D" stroke-width="2" stroke-linecap="round" stroke-linejoin="round"></path>
                <path d="M79.6132075,149.620663 L79.6132075,170.487241" id="Shape" stroke="#384B4D" stroke-width="2" stroke-linecap="round" stroke-linejoin="round"></path>
                <path d="M114.227646,149.620663 L114.227646,170.487241" id="Shape" stroke="#384B4D" stroke-width="2" stroke-linecap="round" stroke-linejoin="round"></path>
                <path d="M79.6132075,170.487241 L92.0536367,198.608432" id="Shape" stroke="#384B4D" stroke-width="2" stroke-linecap="round" stroke-linejoin="round"></path>
                <path d="M92.0536367,198.608432 C92.9077171,200.541548 94.815337,201.787483 96.9204266,201.787107 C99.025516,201.787483 100.933136,200.541548 101.787217,198.608432 L114.227646,170.487241 C113.699893,166.193397 109.859342,163.106471 105.574036,163.531715 C101.28873,163.106471 97.4481788,166.193397 96.9204266,170.487241 C96.3926744,166.193397 92.5521232,163.106471 88.2668171,163.531715 C83.9815109,163.106471 80.1409597,166.193397 79.6132075,170.487241" id="Shape" stroke="#384B4D" stroke-width="2" stroke-linecap="round" stroke-linejoin="round"></path>
                <path d="M87.9899016,189.475825 C89.8736803,186.32625 93.2631634,184.399638 96.9204266,184.399638 C100.57769,184.399638 103.967173,186.32625 105.850952,189.475825" id="Shape" stroke="#384B4D" stroke-width="2" stroke-linecap="round" stroke-linejoin="round"></path>
                <path d="M27.6915504,142.665137 L27.6915504,149.620663" id="Shape" stroke="#384B4D" stroke-width="2" stroke-linecap="round" stroke-linejoin="round"></path>
                <path d="M27.6915504,163.531715 L27.6915504,170.487241" id="Shape" stroke="#384B4D" stroke-width="2" stroke-linecap="round" stroke-linejoin="round"></path>
                <path d="M13.8457752,156.576189 L20.7686629,156.576189" id="Shape" stroke="#384B4D" stroke-width="2" stroke-linecap="round" stroke-linejoin="round"></path>
                <path d="M34.614438,156.576189 L41.5373257,156.576189" id="Shape" stroke="#384B4D" stroke-width="2" stroke-linecap="round" stroke-linejoin="round"></path>
                <path d="M166.149303,142.665137 L166.149303,149.620663" id="Shape" stroke="#384B4D" stroke-width="2" stroke-linecap="round" stroke-linejoin="round"></path>
                <path d="M166.149303,163.531715 L166.149303,170.487241" id="Shape" stroke="#384B4D" stroke-width="2" stroke-linecap="round" stroke-linejoin="round"></path>
                <path d="M152.303528,156.576189 L159.226415,156.576189" id="Shape" stroke="#384B4D" stroke-width="2" stroke-linecap="round" stroke-linejoin="round"></path>
                <path d="M173.072191,156.576189 L179.995078,156.576189" id="Shape" stroke="#384B4D" stroke-width="2" stroke-linecap="round" stroke-linejoin="round"></path>
                <path d="M17.3072191,3.55461957 L34.614438,17.4656714" id="Shape" stroke="#384B4D" stroke-width="2" stroke-linecap="round" stroke-linejoin="round"></path>
                <path d="M17.3072191,111.365271 L34.614438,97.4542188" id="Shape" stroke="#384B4D" stroke-width="2" stroke-linecap="round" stroke-linejoin="round"></path>
                <path d="M20.7686629,59.1988265 L0,59.1988265" id="Shape" stroke="#384B4D" stroke-width="2" stroke-linecap="round" stroke-linejoin="round"></path>
                <path d="M176.533633,3.55461957 L159.226415,17.4656714" id="Shape" stroke="#384B4D" stroke-width="2" stroke-linecap="round" stroke-linejoin="round"></path>
                <path d="M176.533633,111.365271 L159.226415,97.4542188" id="Shape" stroke="#384B4D" stroke-width="2" stroke-linecap="round" stroke-linejoin="round"></path>
                <path d="M173.072191,59.1988265 L193.840853,59.1988265" id="Shape" stroke="#384B4D" stroke-width="2" stroke-linecap="round" stroke-linejoin="round"></path>
            </g>
        </g>
    </g>
</svg>